<svg width="180" height="180" viewBox="0 0 180 180" fill="none" xmlns="http://www.w3.org/2000/svg" role="img" aria-labelledby="title desc">
  <title id="title">Jingler logo</title>
  <desc id="desc">Stylized letter J forming a musical note surrounded by orbiting shapes</desc>
  <defs>
    <linearGradient id="paint0_linear" x1="28" y1="24" x2="148" y2="156" gradientUnits="userSpaceOnUse">
      <stop stop-color="#38BDF8"/>
      <stop offset="0.5" stop-color="#7C3AED"/>
      <stop offset="1" stop-color="#EC4899"/>
    </linearGradient>
    <radialGradient id="paint1_radial" cx="0" cy="0" r="1" gradientUnits="userSpaceOnUse" gradientTransform="translate(90 90) rotate(45) scale(90)">
      <stop stop-color="#1E293B" stop-opacity="0.9"/>
      <stop offset="1" stop-color="#020617" stop-opacity="0"/>
    </radialGradient>
    <filter id="glow" x="-20" y="-20" width="220" height="220" filterUnits="userSpaceOnUse" color-interpolation-filters="sRGB">
      <feGaussianBlur stdDeviation="8" result="blur"/>
      <feMerge>
        <feMergeNode in="blur"/>
        <feMergeNode in="SourceGraphic"/>
      </feMerge>
    </filter>
  </defs>
  <rect x="10" y="10" width="160" height="160" rx="48" fill="url(#paint1_radial)" stroke="rgba(148,163,184,0.35)" stroke-width="2"/>
  <path d="M110 42c-18 0-32 14-32 32v36.5c0 8.25-6.75 15-15 15-6.9 0-12.5-5.6-12.5-12.5S56.1 101 63 101c2.1 0 4 .5 5.75 1.4V74c0-23.2 18.8-42 42-42 11.6 0 21.7 4.65 29.15 12.15l-12.1 11.9C123.1 48.3 116.8 42 110 42Z" fill="url(#paint0_linear)" filter="url(#glow)"/>
  <circle cx="132" cy="50" r="12" fill="url(#paint0_linear)" opacity="0.9"/>
  <circle cx="62" cy="126" r="8" fill="#FBBF24" opacity="0.85"/>
  <path d="M52 62c4.5-15 20-26 38-26" stroke="url(#paint0_linear)" stroke-width="6" stroke-linecap="round" stroke-dasharray="18 18" opacity="0.6"/>
</svg>
